<?xml version="1.0" encoding="UTF-8"?>
<!-- Atlantic Puffin — seabird silhouette; huge bill; short tail; field marks: cap, cheek -->
<svg xmlns="http://www.w3.org/2000/svg" width="512" height="512" viewBox="0 0 100 100" role="img" aria-label="Atlantic Puffin">
  <defs><clipPath id="hatlanticpuffin"><circle cx="50" cy="28" r="14"/></clipPath><clipPath id="batlanticpuffin"><ellipse cx="49" cy="60" rx="19" ry="26"/><ellipse cx="55" cy="56" rx="14" ry="16"/></clipPath><clipPath id="watlanticpuffin"><ellipse cx="43" cy="60" rx="12" ry="22"/></clipPath></defs><path d="M33 80 L27 88 L41 88 Z" fill="#1a1a1c"/><g><line x1="45" y1="83" x2="45" y2="91" stroke="#e8542f" stroke-width="2" stroke-linecap="round"/><line x1="55" y1="83" x2="55" y2="91" stroke="#e8542f" stroke-width="2" stroke-linecap="round"/><line x1="45" y1="91" x2="42.6" y2="92.6" stroke="#e8542f" stroke-width="1.4" stroke-linecap="round"/><line x1="45" y1="91" x2="45" y2="92.8" stroke="#e8542f" stroke-width="1.4" stroke-linecap="round"/><line x1="45" y1="91" x2="47.4" y2="92.6" stroke="#e8542f" stroke-width="1.4" stroke-linecap="round"/><line x1="55" y1="91" x2="52.6" y2="92.6" stroke="#e8542f" stroke-width="1.4" stroke-linecap="round"/><line x1="55" y1="91" x2="55" y2="92.8" stroke="#e8542f" stroke-width="1.4" stroke-linecap="round"/><line x1="55" y1="91" x2="57.4" y2="92.6" stroke="#e8542f" stroke-width="1.4" stroke-linecap="round"/></g><ellipse cx="49" cy="60" rx="19" ry="26" fill="#232326"/><ellipse cx="53" cy="64" rx="13" ry="20" fill="#f6f3ec"/><ellipse cx="43" cy="60" rx="12" ry="22" fill="#1a1a1c"/><circle cx="50" cy="28" r="14" fill="#232326"/><rect x="35" y="13" width="30" height="26.6" fill="#232326" clip-path="url(#hatlanticpuffin)"/><ellipse cx="53" cy="29" rx="7" ry="6" fill="#e8e4da" clip-path="url(#hatlanticpuffin)"/><path d="M59 26 Q74 28 74 35 Q69 38 60 35 Z" fill="#e8542f"/><line x1="62" y1="27.5" x2="62" y2="35" stroke="#1a1a1c" stroke-width="0.7" stroke-linecap="round"/><line x1="67" y1="27.4" x2="67" y2="36" stroke="#1a1a1c" stroke-width="0.6" stroke-linecap="round"/><g><circle cx="55" cy="26" r="2.6" fill="#fff"/><circle cx="55.3" cy="26" r="1.61" fill="#241f1c"/><circle cx="55.7" cy="25.5" r="0.57" fill="#fff"/></g>
</svg>
