<?xml version="1.0" encoding="UTF-8"?>
<!-- Barn Swallow — flit silhouette; thin bill; fork tail; field marks: throat, forehead -->
<svg xmlns="http://www.w3.org/2000/svg" width="512" height="512" viewBox="0 0 100 100" role="img" aria-label="Barn Swallow">
  <defs><radialGradient id="bgbarnswallow" cx="36%" cy="28%" r="80%"><stop offset="0%" stop-color="#6a79aa"/><stop offset="55%" stop-color="#2a3f86"/><stop offset="100%" stop-color="#213169"/></radialGradient><radialGradient id="hdbarnswallow" cx="36%" cy="28%" r="80%"><stop offset="0%" stop-color="#6a79aa"/><stop offset="55%" stop-color="#2a3f86"/><stop offset="100%" stop-color="#213169"/></radialGradient><radialGradient id="blbarnswallow" cx="36%" cy="28%" r="80%"><stop offset="0%" stop-color="#efcead"/><stop offset="55%" stop-color="#e8b98a"/><stop offset="100%" stop-color="#b5906c"/></radialGradient><radialGradient id="wgbarnswallow" cx="36%" cy="28%" r="80%"><stop offset="0%" stop-color="#626d94"/><stop offset="55%" stop-color="#1f2f66"/><stop offset="100%" stop-color="#182550"/></radialGradient><clipPath id="hbarnswallow"><circle cx="50" cy="34" r="13"/></clipPath><clipPath id="bbarnswallow"><ellipse cx="50" cy="58" rx="16" ry="20"/></clipPath><clipPath id="wbarnswallow"><ellipse cx="22" cy="48" rx="9" ry="8"/><ellipse cx="78" cy="48" rx="9" ry="8"/></clipPath></defs><ellipse cx="50" cy="95" rx="26" ry="4.5" fill="#000" opacity="0.14"/><path d="M36 50 Q14 36 4 48 Q20 52 38 56 Z" fill="url(#wgbarnswallow)"/><path d="M64 50 Q86 36 96 48 Q80 52 62 56 Z" fill="url(#wgbarnswallow)"/><path d="M44 78 L56 78 L59 96 L53 90 L50 94 L47 90 L41 96 Z" fill="#1f2f66"/><ellipse cx="50" cy="58" rx="16" ry="20" fill="url(#bgbarnswallow)"/><ellipse cx="50" cy="62" rx="11" ry="14" fill="url(#blbarnswallow)"/><circle cx="50" cy="34" r="13" fill="url(#hdbarnswallow)"/><ellipse cx="50" cy="46.5" rx="6" ry="5.5" fill="#a8442a" clip-path="url(#hbarnswallow)"/><rect x="36" y="20" width="28" height="6.24" fill="#a8442a" clip-path="url(#hbarnswallow)"/><path d="M48.6 40 L51.4 40 L50.6 47 L49.4 47 Z" fill="#2a2a2a"/><g><circle cx="45" cy="32" r="2.8" fill="#241f1c"/><circle cx="44.1" cy="31.05" r="0.95" fill="#fff" opacity="0.92"/><circle cx="55" cy="32" r="2.8" fill="#241f1c"/><circle cx="54.1" cy="31.05" r="0.95" fill="#fff" opacity="0.92"/></g><ellipse cx="45.58" cy="28.54" rx="5.2" ry="3.38" fill="#fff" opacity="0.16"/>
</svg>
