<?xml version="1.0" encoding="UTF-8"?>
<!-- Cedar Waxwing — perch silhouette; stout bill; sweep crest; short tail; field marks: mask, tailtip, wingPatch -->
<svg xmlns="http://www.w3.org/2000/svg" width="512" height="512" viewBox="0 0 100 100" role="img" aria-label="Cedar Waxwing">
  <defs><radialGradient id="bgcedarwaxwing" cx="36%" cy="28%" r="80%"><stop offset="0%" stop-color="#cdb89c"/><stop offset="55%" stop-color="#b89a72"/><stop offset="100%" stop-color="#907859"/></radialGradient><radialGradient id="hdcedarwaxwing" cx="36%" cy="28%" r="80%"><stop offset="0%" stop-color="#cdb89c"/><stop offset="55%" stop-color="#b89a72"/><stop offset="100%" stop-color="#907859"/></radialGradient><radialGradient id="blcedarwaxwing" cx="36%" cy="28%" r="80%"><stop offset="0%" stop-color="#e4d7bd"/><stop offset="55%" stop-color="#d8c6a0"/><stop offset="100%" stop-color="#a89a7d"/></radialGradient><radialGradient id="wgcedarwaxwing" cx="36%" cy="28%" r="80%"><stop offset="0%" stop-color="#9a9086"/><stop offset="55%" stop-color="#6f6052"/><stop offset="100%" stop-color="#574b40"/></radialGradient><clipPath id="hcedarwaxwing"><circle cx="50" cy="33" r="18"/></clipPath><clipPath id="bcedarwaxwing"><ellipse cx="50" cy="66" rx="25" ry="27"/></clipPath><clipPath id="wcedarwaxwing"><ellipse cx="29" cy="66" rx="9" ry="18"/><ellipse cx="71" cy="66" rx="9" ry="18"/></clipPath></defs><ellipse cx="50" cy="95" rx="26" ry="4.5" fill="#000" opacity="0.14"/><path d="M42 88 L52 88 L50 98 L44 98 Z" fill="#6f6052"/><line x1="43" y1="86" x2="43" y2="92" stroke="#282828" stroke-width="2.2" stroke-linecap="round"/><line x1="57" y1="86" x2="57" y2="92" stroke="#2c2c2c" stroke-width="2.2" stroke-linecap="round"/><line x1="43" y1="92" x2="40.8" y2="93.8" stroke="#2c2c2c" stroke-width="1.3" stroke-linecap="round"/><line x1="43" y1="92" x2="43" y2="94" stroke="#2c2c2c" stroke-width="1.3" stroke-linecap="round"/><line x1="43" y1="92" x2="45.2" y2="93.8" stroke="#2c2c2c" stroke-width="1.3" stroke-linecap="round"/><line x1="57" y1="92" x2="54.8" y2="93.8" stroke="#2c2c2c" stroke-width="1.3" stroke-linecap="round"/><line x1="57" y1="92" x2="57" y2="94" stroke="#2c2c2c" stroke-width="1.3" stroke-linecap="round"/><line x1="57" y1="92" x2="59.2" y2="93.8" stroke="#2c2c2c" stroke-width="1.3" stroke-linecap="round"/><ellipse cx="29" cy="66" rx="9" ry="18" fill="url(#wgcedarwaxwing)"/><ellipse cx="71" cy="66" rx="9" ry="18" fill="url(#wgcedarwaxwing)"/><ellipse cx="50" cy="66" rx="25" ry="27" fill="url(#bgcedarwaxwing)"/><ellipse cx="50" cy="72" rx="16" ry="18" fill="url(#blcedarwaxwing)"/><ellipse cx="50" cy="50" rx="18" ry="12" fill="#9e8462" opacity="0.5"/><circle cx="50" cy="33" r="18" fill="url(#hdcedarwaxwing)"/><rect x="31" y="28.04" width="38" height="9" fill="#1f1c19" clip-path="url(#hcedarwaxwing)"/><rect x="41" y="100" width="12" height="2.6" fill="#e6d24a"/><ellipse cx="29" cy="69" rx="5" ry="7" fill="#c0392b" clip-path="url(#wcedarwaxwing)"/><ellipse cx="71" cy="69" rx="5" ry="7" fill="#c0392b" clip-path="url(#wcedarwaxwing)"/><path d="M48 19 Q58 3 63 7 Q56 13 54 18 Z" fill="#b89a72"/><path d="M47.6 39 Q51 38 54.4 39 L51 45 Z" fill="#2c2c2c"/><g><circle cx="43" cy="32" r="3.4" fill="#241f1c"/><circle cx="41.91" cy="30.84" r="1.16" fill="#fff" opacity="0.92"/><circle cx="58" cy="32" r="3.4" fill="#241f1c"/><circle cx="56.91" cy="30.84" r="1.16" fill="#fff" opacity="0.92"/></g><ellipse cx="43.88" cy="25.44" rx="7.2" ry="4.68" fill="#fff" opacity="0.16"/>
</svg>
