<?xml version="1.0" encoding="UTF-8"?>
<!-- Cedar Waxwing — perch silhouette; stout bill; sweep crest; short tail; field marks: mask, tailtip, wingPatch -->
<svg xmlns="http://www.w3.org/2000/svg" width="512" height="512" viewBox="0 0 100 100" role="img" aria-label="Cedar Waxwing">
  <defs><clipPath id="hcedarwaxwing"><circle cx="50" cy="35" r="15"/></clipPath><clipPath id="bcedarwaxwing"><ellipse cx="49" cy="60" rx="22" ry="24"/><ellipse cx="54" cy="58" rx="14" ry="16"/></clipPath><clipPath id="wcedarwaxwing"><ellipse cx="44" cy="60" rx="13" ry="19"/></clipPath></defs><path d="M31 64 C23 68 19 73 18 78 L26 76 C30 72 33 69 35 67 Z" fill="#6f6052"/><g><line x1="45" y1="82" x2="45" y2="88" stroke="#2c2c2c" stroke-width="2" stroke-linecap="round"/><line x1="55" y1="82" x2="55" y2="88" stroke="#2c2c2c" stroke-width="2" stroke-linecap="round"/><line x1="45" y1="88" x2="42.6" y2="89.6" stroke="#2c2c2c" stroke-width="1.4" stroke-linecap="round"/><line x1="45" y1="88" x2="45" y2="89.8" stroke="#2c2c2c" stroke-width="1.4" stroke-linecap="round"/><line x1="45" y1="88" x2="47.4" y2="89.6" stroke="#2c2c2c" stroke-width="1.4" stroke-linecap="round"/><line x1="55" y1="88" x2="52.6" y2="89.6" stroke="#2c2c2c" stroke-width="1.4" stroke-linecap="round"/><line x1="55" y1="88" x2="55" y2="89.8" stroke="#2c2c2c" stroke-width="1.4" stroke-linecap="round"/><line x1="55" y1="88" x2="57.4" y2="89.6" stroke="#2c2c2c" stroke-width="1.4" stroke-linecap="round"/></g><ellipse cx="49" cy="60" rx="22" ry="24" fill="#b89a72"/><ellipse cx="54" cy="64" rx="15" ry="18" fill="#d8c6a0"/><ellipse cx="44" cy="60" rx="13" ry="19" fill="#6f6052"/><circle cx="50" cy="35" r="15" fill="#b89a72"/><rect x="34" y="30" width="32" height="6.5" fill="#1f1c19" clip-path="url(#hcedarwaxwing)"/><rect x="23" y="78" width="14" height="2.6" fill="#e6d24a"/><ellipse cx="44" cy="64" rx="9.1" ry="8.55" fill="#c0392b" clip-path="url(#wcedarwaxwing)"/><path d="M45 22 Q38 12 44 11 Q49 14 52 22 Z" fill="#b89a72"/><path d="M64 35.2 L70 37.4 L64 39.2 Z" fill="#2c2c2c"/><g><circle cx="56" cy="33" r="3" fill="#fff"/><circle cx="56.3" cy="33" r="1.86" fill="#241f1c"/><circle cx="56.7" cy="32.5" r="0.66" fill="#fff"/></g>
</svg>
