<?xml version="1.0" encoding="UTF-8"?>
<!-- Downy Woodpecker — cling silhouette; chisel bill; short tail; field marks: cheek, eyeline, nape, ladderback -->
<svg xmlns="http://www.w3.org/2000/svg" width="512" height="512" viewBox="0 0 100 100" role="img" aria-label="Downy Woodpecker">
  <defs><clipPath id="hdownywoodpecker"><circle cx="44" cy="30" r="12"/></clipPath><clipPath id="bdownywoodpecker"><ellipse cx="44" cy="58" rx="16" ry="28"/><ellipse cx="50" cy="56" rx="14" ry="16"/></clipPath><clipPath id="wdownywoodpecker"><ellipse cx="40" cy="56" rx="11" ry="24"/></clipPath></defs><path d="M36 84 L39 100 L45 99 L46 84 Z" fill="#1f1f1f"/><line x1="30" y1="38" x2="30" y2="78" stroke="#555555" stroke-width="1" stroke-linecap="round"/><line x1="30" y1="50" x2="36" y2="46" stroke="#555555" stroke-width="1.4" stroke-linecap="round"/><ellipse cx="44" cy="58" rx="16" ry="28" fill="#2a2a2a"/><ellipse cx="50" cy="60" rx="9" ry="22" fill="#f6f1e8"/><ellipse cx="40" cy="56" rx="11" ry="24" fill="#1f1f1f"/><circle cx="44" cy="30" r="12" fill="#2a2a2a"/><ellipse cx="47" cy="31" rx="7" ry="6" fill="#f6f3ec" clip-path="url(#hdownywoodpecker)"/><rect x="42" y="26.6" width="18" height="2.8" fill="#1f1f1f" clip-path="url(#hdownywoodpecker)"/><circle cx="36" cy="28" r="4" fill="#cc3b30" clip-path="url(#hdownywoodpecker)"/><rect x="29" y="32" width="22" height="2.4" fill="#f6f3ec" clip-path="url(#wdownywoodpecker)"/><rect x="29" y="39" width="22" height="2.4" fill="#f6f3ec" clip-path="url(#wdownywoodpecker)"/><rect x="29" y="46" width="22" height="2.4" fill="#f6f3ec" clip-path="url(#wdownywoodpecker)"/><rect x="29" y="53" width="22" height="2.4" fill="#f6f3ec" clip-path="url(#wdownywoodpecker)"/><rect x="29" y="60" width="22" height="2.4" fill="#f6f3ec" clip-path="url(#wdownywoodpecker)"/><rect x="29" y="67" width="22" height="2.4" fill="#f6f3ec" clip-path="url(#wdownywoodpecker)"/><path d="M55 29.4 L66 30.8 L66 32 L55 33.2 Z" fill="#555555"/><g><circle cx="48" cy="28" r="2.6" fill="#fff"/><circle cx="48.3" cy="28" r="1.61" fill="#241f1c"/><circle cx="48.7" cy="27.5" r="0.57" fill="#fff"/></g>
</svg>
