<?xml version="1.0" encoding="UTF-8"?>
<!-- Great Horned Owl — owl silhouette; hook bill; horns crest; field marks: throat, scaly -->
<svg xmlns="http://www.w3.org/2000/svg" width="512" height="512" viewBox="0 0 100 100" role="img" aria-label="Great Horned Owl">
  <defs><clipPath id="hgreathornedowl"><circle cx="50" cy="36" r="24"/></clipPath><clipPath id="bgreathornedowl"><ellipse cx="50" cy="66" rx="26" ry="28"/><ellipse cx="50" cy="60" rx="14" ry="16"/></clipPath><clipPath id="wgreathornedowl"><ellipse cx="28" cy="66" rx="9" ry="22"/></clipPath></defs><g><line x1="43" y1="90" x2="43" y2="95" stroke="#2c2c2c" stroke-width="2" stroke-linecap="round"/><line x1="57" y1="90" x2="57" y2="95" stroke="#2c2c2c" stroke-width="2" stroke-linecap="round"/><line x1="43" y1="95" x2="40.6" y2="96.6" stroke="#2c2c2c" stroke-width="1.4" stroke-linecap="round"/><line x1="43" y1="95" x2="43" y2="96.8" stroke="#2c2c2c" stroke-width="1.4" stroke-linecap="round"/><line x1="43" y1="95" x2="45.4" y2="96.6" stroke="#2c2c2c" stroke-width="1.4" stroke-linecap="round"/><line x1="57" y1="95" x2="54.6" y2="96.6" stroke="#2c2c2c" stroke-width="1.4" stroke-linecap="round"/><line x1="57" y1="95" x2="57" y2="96.8" stroke="#2c2c2c" stroke-width="1.4" stroke-linecap="round"/><line x1="57" y1="95" x2="59.4" y2="96.6" stroke="#2c2c2c" stroke-width="1.4" stroke-linecap="round"/></g><ellipse cx="50" cy="66" rx="26" ry="28" fill="#6e5a44"/><ellipse cx="50" cy="70" rx="17" ry="22" fill="#c9b08a"/><ellipse cx="28" cy="66" rx="9" ry="22" fill="#4f4030"/><ellipse cx="72" cy="66" rx="9" ry="22" fill="#4f4030"/><circle cx="50" cy="36" r="24" fill="#6e5a44"/><ellipse cx="42" cy="38" rx="11" ry="13" fill="#c9b08a" opacity="0.55"/><ellipse cx="58" cy="38" rx="11" ry="13" fill="#c9b08a" opacity="0.55"/><ellipse cx="54" cy="58" rx="6" ry="5" fill="#f0ece2" clip-path="url(#hgreathornedowl)"/><circle cx="40" cy="60" r="2" fill="#4f4030" clip-path="url(#bgreathornedowl)"/><circle cx="50" cy="60" r="2" fill="#4f4030" clip-path="url(#bgreathornedowl)"/><circle cx="60" cy="60" r="2" fill="#4f4030" clip-path="url(#bgreathornedowl)"/><circle cx="40" cy="69" r="2" fill="#4f4030" clip-path="url(#bgreathornedowl)"/><circle cx="50" cy="69" r="2" fill="#4f4030" clip-path="url(#bgreathornedowl)"/><path d="M36.8 16 l-2 -8 l5 4 Z" fill="#4f4030"/><path d="M63.2 16 l2 -8 l-5 4 Z" fill="#4f4030"/><path d="M49 39.4 L57 41 Q59 43.4 55.5 45.2 Q55 43 50 43.6 Z" fill="#2c2c2c"/><circle cx="42" cy="36" r="6.5" fill="#fdf6e6"/><circle cx="42" cy="36" r="3.9" fill="#3a2f23"/><circle cx="43" cy="35" r="1.3" fill="#fff"/><circle cx="58" cy="36" r="6.5" fill="#fdf6e6"/><circle cx="58" cy="36" r="3.9" fill="#3a2f23"/><circle cx="59" cy="35" r="1.3" fill="#fff"/>
</svg>
