<?xml version="1.0" encoding="UTF-8"?>
<!-- Green Heron — wader silhouette; dagger bill; field marks: cap -->
<svg xmlns="http://www.w3.org/2000/svg" width="512" height="512" viewBox="0 0 100 100" role="img" aria-label="Green Heron">
  <defs><clipPath id="hgreenheron"><circle cx="60" cy="22" r="9"/></clipPath><clipPath id="bgreenheron"><ellipse cx="48" cy="58" rx="20" ry="15"/><ellipse cx="58" cy="50" rx="14" ry="16"/></clipPath><clipPath id="wgreenheron"><ellipse cx="46" cy="58" rx="16" ry="13"/></clipPath></defs><line x1="46" y1="70" x2="44" y2="86" stroke="#2c2c2c" stroke-width="1.8" stroke-linecap="round"/><line x1="44" y1="86" x2="40" y2="88" stroke="#2c2c2c" stroke-width="1.6" stroke-linecap="round"/><line x1="54" y1="70" x2="56" y2="86" stroke="#2c2c2c" stroke-width="1.8" stroke-linecap="round"/><line x1="56" y1="86" x2="60" y2="88" stroke="#2c2c2c" stroke-width="1.6" stroke-linecap="round"/><path d="M30 58 L18 64 L30 64 Z" fill="#2f3f36"/><ellipse cx="48" cy="58" rx="20" ry="15" fill="#3a4a3f"/><ellipse cx="50" cy="60" rx="14" ry="11" fill="#8a4a3a"/><ellipse cx="46" cy="58" rx="16" ry="13" fill="#2f3f36"/><path d="M52 50 C50 38 54 28 60 26" fill="none" stroke="#3a4a3f" stroke-width="7" stroke-linecap="round"/><circle cx="60" cy="22" r="9" fill="#3a4a3f"/><rect x="50" y="12" width="20" height="17.1" fill="#26302a" clip-path="url(#hgreenheron)"/><path d="M69 21.2 L84 23 L69 25 Z" fill="#2c2c2c"/><line x1="69" y1="23" x2="84" y2="23" stroke="#2f3f36" stroke-width="0.5" stroke-linecap="round"/><g><circle cx="63" cy="20" r="2" fill="#fff"/><circle cx="63.3" cy="20" r="1.24" fill="#241f1c"/><circle cx="63.7" cy="19.5" r="0.44" fill="#fff"/></g>
</svg>
