<?xml version="1.0" encoding="UTF-8"?>
<!-- Herring Gull — seabird silhouette; stout bill; short tail; field marks: wingtips, billspot -->
<svg xmlns="http://www.w3.org/2000/svg" width="512" height="512" viewBox="0 0 100 100" role="img" aria-label="Herring Gull">
  <defs><clipPath id="hherringgull"><circle cx="50" cy="28" r="14"/></clipPath><clipPath id="bherringgull"><ellipse cx="49" cy="60" rx="19" ry="26"/><ellipse cx="55" cy="56" rx="14" ry="16"/></clipPath><clipPath id="wherringgull"><ellipse cx="43" cy="60" rx="12" ry="22"/></clipPath></defs><path d="M33 80 L27 88 L41 88 Z" fill="#b9bcc2"/><g><line x1="45" y1="83" x2="45" y2="91" stroke="#e8c24a" stroke-width="2" stroke-linecap="round"/><line x1="55" y1="83" x2="55" y2="91" stroke="#e8c24a" stroke-width="2" stroke-linecap="round"/><line x1="45" y1="91" x2="42.6" y2="92.6" stroke="#e8c24a" stroke-width="1.4" stroke-linecap="round"/><line x1="45" y1="91" x2="45" y2="92.8" stroke="#e8c24a" stroke-width="1.4" stroke-linecap="round"/><line x1="45" y1="91" x2="47.4" y2="92.6" stroke="#e8c24a" stroke-width="1.4" stroke-linecap="round"/><line x1="55" y1="91" x2="52.6" y2="92.6" stroke="#e8c24a" stroke-width="1.4" stroke-linecap="round"/><line x1="55" y1="91" x2="55" y2="92.8" stroke="#e8c24a" stroke-width="1.4" stroke-linecap="round"/><line x1="55" y1="91" x2="57.4" y2="92.6" stroke="#e8c24a" stroke-width="1.4" stroke-linecap="round"/></g><ellipse cx="49" cy="60" rx="19" ry="26" fill="#f4f1ea"/><ellipse cx="53" cy="64" rx="13" ry="20" fill="#f6f3ec"/><ellipse cx="43" cy="60" rx="12" ry="22" fill="#b9bcc2"/><circle cx="50" cy="28" r="14" fill="#f4f1ea"/><path d="M35 78 q-10 4 -14 12 l8 -2 q4 -6 10 -6 Z" fill="#26262a" clip-path="url(#bherringgull)"/><circle cx="69" cy="32.5" r="1.1" fill="#c0392b"/><path d="M63 29.2 L69 31.4 L63 33.2 Z" fill="#e8c24a"/><g><circle cx="55" cy="26" r="2.6" fill="#fff"/><circle cx="55.3" cy="26" r="1.61" fill="#241f1c"/><circle cx="55.7" cy="25.5" r="0.57" fill="#fff"/></g>
</svg>
