<?xml version="1.0" encoding="UTF-8"?>
<!-- House Wren — perch silhouette; thin bill; updown tail; field marks: eyebrow, barback -->
<svg xmlns="http://www.w3.org/2000/svg" width="512" height="512" viewBox="0 0 100 100" role="img" aria-label="House Wren">
  <defs><clipPath id="hhousewren"><circle cx="50" cy="35" r="15"/></clipPath><clipPath id="bhousewren"><ellipse cx="49" cy="60" rx="22" ry="24"/><ellipse cx="54" cy="58" rx="14" ry="16"/></clipPath><clipPath id="whousewren"><ellipse cx="44" cy="60" rx="13" ry="19"/></clipPath></defs><path d="M31 64 C25 56 23 48 25 44 L33 48 C34 56 34 62 33 66 Z" fill="#6e5238"/><g><line x1="45" y1="82" x2="45" y2="92" stroke="#4a3c2c" stroke-width="2" stroke-linecap="round"/><line x1="55" y1="82" x2="55" y2="92" stroke="#4a3c2c" stroke-width="2" stroke-linecap="round"/><line x1="45" y1="92" x2="42.6" y2="93.6" stroke="#4a3c2c" stroke-width="1.4" stroke-linecap="round"/><line x1="45" y1="92" x2="45" y2="93.8" stroke="#4a3c2c" stroke-width="1.4" stroke-linecap="round"/><line x1="45" y1="92" x2="47.4" y2="93.6" stroke="#4a3c2c" stroke-width="1.4" stroke-linecap="round"/><line x1="55" y1="92" x2="52.6" y2="93.6" stroke="#4a3c2c" stroke-width="1.4" stroke-linecap="round"/><line x1="55" y1="92" x2="55" y2="93.8" stroke="#4a3c2c" stroke-width="1.4" stroke-linecap="round"/><line x1="55" y1="92" x2="57.4" y2="93.6" stroke="#4a3c2c" stroke-width="1.4" stroke-linecap="round"/></g><ellipse cx="49" cy="60" rx="22" ry="24" fill="#9c7a55"/><ellipse cx="54" cy="64" rx="15" ry="18" fill="#cabb9c"/><ellipse cx="44" cy="60" rx="13" ry="19" fill="#6e5238"/><circle cx="50" cy="35" r="15" fill="#9c7a55"/><rect x="35" y="28" width="19" height="2.4" fill="#d8c8aa" clip-path="url(#hhousewren)"/><rect x="27" y="36" width="44" height="2.2" fill="#5a4332" clip-path="url(#bhousewren)"/><rect x="27" y="42.5" width="44" height="2.2" fill="#5a4332" clip-path="url(#bhousewren)"/><rect x="27" y="49" width="44" height="2.2" fill="#5a4332" clip-path="url(#bhousewren)"/><rect x="27" y="55.5" width="44" height="2.2" fill="#5a4332" clip-path="url(#bhousewren)"/><rect x="27" y="62" width="44" height="2.2" fill="#5a4332" clip-path="url(#bhousewren)"/><rect x="27" y="68.5" width="44" height="2.2" fill="#5a4332" clip-path="url(#bhousewren)"/><rect x="27" y="75" width="44" height="2.2" fill="#5a4332" clip-path="url(#bhousewren)"/><path d="M64 35.7 L72 37 L64 38.3 Z" fill="#4a3c2c"/><g><circle cx="56" cy="33" r="3" fill="#fff"/><circle cx="56.3" cy="33" r="1.86" fill="#241f1c"/><circle cx="56.7" cy="32.5" r="0.66" fill="#fff"/></g>
</svg>
