<?xml version="1.0" encoding="UTF-8"?>
<!-- Northern Cardinal — perch silhouette; cone bill; spike crest; long tail; field marks: mask -->
<svg xmlns="http://www.w3.org/2000/svg" width="512" height="512" viewBox="0 0 100 100" role="img" aria-label="Northern Cardinal">
  <defs><radialGradient id="bgnortherncardinal" cx="36%" cy="28%" r="80%"><stop offset="0%" stop-color="#d3746b"/><stop offset="55%" stop-color="#c0392b"/><stop offset="100%" stop-color="#962c22"/></radialGradient><radialGradient id="hdnortherncardinal" cx="36%" cy="28%" r="80%"><stop offset="0%" stop-color="#d3746b"/><stop offset="55%" stop-color="#c0392b"/><stop offset="100%" stop-color="#962c22"/></radialGradient><radialGradient id="blnortherncardinal" cx="36%" cy="28%" r="80%"><stop offset="0%" stop-color="#e28980"/><stop offset="55%" stop-color="#d5564a"/><stop offset="100%" stop-color="#a6433a"/></radialGradient><radialGradient id="wgnortherncardinal" cx="36%" cy="28%" r="80%"><stop offset="0%" stop-color="#ba6a64"/><stop offset="55%" stop-color="#9c2a22"/><stop offset="100%" stop-color="#7a211b"/></radialGradient><clipPath id="hnortherncardinal"><circle cx="50" cy="33" r="18"/></clipPath><clipPath id="bnortherncardinal"><ellipse cx="50" cy="66" rx="25" ry="27"/></clipPath><clipPath id="wnortherncardinal"><ellipse cx="29" cy="66" rx="9" ry="18"/><ellipse cx="71" cy="66" rx="9" ry="18"/></clipPath></defs><ellipse cx="50" cy="95" rx="26" ry="4.5" fill="#000" opacity="0.14"/><path d="M42 88 L52 88 L49 114 L45 114 Z" fill="#9c2a22"/><line x1="43" y1="86" x2="43" y2="92" stroke="#d17a34" stroke-width="2.2" stroke-linecap="round"/><line x1="57" y1="86" x2="57" y2="92" stroke="#e8883a" stroke-width="2.2" stroke-linecap="round"/><line x1="43" y1="92" x2="40.8" y2="93.8" stroke="#e8883a" stroke-width="1.3" stroke-linecap="round"/><line x1="43" y1="92" x2="43" y2="94" stroke="#e8883a" stroke-width="1.3" stroke-linecap="round"/><line x1="43" y1="92" x2="45.2" y2="93.8" stroke="#e8883a" stroke-width="1.3" stroke-linecap="round"/><line x1="57" y1="92" x2="54.8" y2="93.8" stroke="#e8883a" stroke-width="1.3" stroke-linecap="round"/><line x1="57" y1="92" x2="57" y2="94" stroke="#e8883a" stroke-width="1.3" stroke-linecap="round"/><line x1="57" y1="92" x2="59.2" y2="93.8" stroke="#e8883a" stroke-width="1.3" stroke-linecap="round"/><ellipse cx="29" cy="66" rx="9" ry="18" fill="url(#wgnortherncardinal)"/><ellipse cx="71" cy="66" rx="9" ry="18" fill="url(#wgnortherncardinal)"/><ellipse cx="50" cy="66" rx="25" ry="27" fill="url(#bgnortherncardinal)"/><ellipse cx="50" cy="72" rx="16" ry="18" fill="url(#blnortherncardinal)"/><ellipse cx="50" cy="50" rx="18" ry="12" fill="#a53125" opacity="0.5"/><circle cx="50" cy="33" r="18" fill="url(#hdnortherncardinal)"/><rect x="31" y="28.04" width="38" height="9" fill="#1f1c1a" clip-path="url(#hnortherncardinal)"/><path d="M46 20 L51 2 L56 19 Z" fill="#c0392b"/><path d="M48 38.5 L54 38.5 L51 45 Z" fill="#e8883a"/><path d="M48 38.5 L51 38.5 L51 45 Z" fill="#ec9d5d"/><g><circle cx="43" cy="32" r="3.4" fill="#241f1c"/><circle cx="41.91" cy="30.84" r="1.16" fill="#fff" opacity="0.92"/><circle cx="58" cy="32" r="3.4" fill="#241f1c"/><circle cx="56.91" cy="30.84" r="1.16" fill="#fff" opacity="0.92"/></g><ellipse cx="43.88" cy="25.44" rx="7.2" ry="4.68" fill="#fff" opacity="0.16"/>
</svg>
