<?xml version="1.0" encoding="UTF-8"?>
<!-- Piping Plover — shorebird silhouette; stout bill; field marks: forehead, breastBand -->
<svg xmlns="http://www.w3.org/2000/svg" width="512" height="512" viewBox="0 0 100 100" role="img" aria-label="Piping Plover">
  <defs><radialGradient id="bgpipingplover" cx="36%" cy="28%" r="80%"><stop offset="0%" stop-color="#dad2c1"/><stop offset="55%" stop-color="#cabfa6"/><stop offset="100%" stop-color="#9e9581"/></radialGradient><radialGradient id="hdpipingplover" cx="36%" cy="28%" r="80%"><stop offset="0%" stop-color="#dad2c1"/><stop offset="55%" stop-color="#cabfa6"/><stop offset="100%" stop-color="#9e9581"/></radialGradient><radialGradient id="blpipingplover" cx="36%" cy="28%" r="80%"><stop offset="0%" stop-color="#f9f7f2"/><stop offset="55%" stop-color="#f6f3ec"/><stop offset="100%" stop-color="#c0beb8"/></radialGradient><radialGradient id="wgpipingplover" cx="36%" cy="28%" r="80%"><stop offset="0%" stop-color="#c8bfac"/><stop offset="55%" stop-color="#b0a488"/><stop offset="100%" stop-color="#89806a"/></radialGradient><clipPath id="hpipingplover"><circle cx="50" cy="28" r="14"/></clipPath><clipPath id="bpipingplover"><ellipse cx="50" cy="58" rx="22" ry="18"/></clipPath><clipPath id="wpipingplover"><ellipse cx="31" cy="58" rx="9" ry="15"/><ellipse cx="69" cy="58" rx="9" ry="15"/></clipPath></defs><ellipse cx="50" cy="95" rx="26" ry="4.5" fill="#000" opacity="0.14"/><line x1="44" y1="72" x2="44" y2="86" stroke="#d19334" stroke-width="2.2" stroke-linecap="round"/><line x1="56" y1="72" x2="56" y2="86" stroke="#e8a33a" stroke-width="2.2" stroke-linecap="round"/><line x1="44" y1="86" x2="41.8" y2="87.8" stroke="#e8a33a" stroke-width="1.3" stroke-linecap="round"/><line x1="44" y1="86" x2="44" y2="88" stroke="#e8a33a" stroke-width="1.3" stroke-linecap="round"/><line x1="44" y1="86" x2="46.2" y2="87.8" stroke="#e8a33a" stroke-width="1.3" stroke-linecap="round"/><line x1="56" y1="86" x2="53.8" y2="87.8" stroke="#e8a33a" stroke-width="1.3" stroke-linecap="round"/><line x1="56" y1="86" x2="56" y2="88" stroke="#e8a33a" stroke-width="1.3" stroke-linecap="round"/><line x1="56" y1="86" x2="58.2" y2="87.8" stroke="#e8a33a" stroke-width="1.3" stroke-linecap="round"/><path d="M45 70 L55 70 L53 80 L47 80 Z" fill="#b0a488"/><ellipse cx="31" cy="58" rx="9" ry="15" fill="url(#wgpipingplover)"/><ellipse cx="69" cy="58" rx="9" ry="15" fill="url(#wgpipingplover)"/><ellipse cx="50" cy="58" rx="22" ry="18" fill="url(#bgpipingplover)"/><ellipse cx="50" cy="62" rx="15" ry="13" fill="url(#blpipingplover)"/><circle cx="50" cy="28" r="14" fill="url(#hdpipingplover)"/><rect x="35" y="13" width="30" height="6.72" fill="#2a2620" clip-path="url(#hpipingplover)"/><ellipse cx="50" cy="54" rx="17.16" ry="3" fill="#2a2620" clip-path="url(#bpipingplover)"/><path d="M46.6 35 Q50 34 53.4 35 L50 41 Z" fill="#e8a33a"/><g><circle cx="44" cy="26" r="2.8" fill="#241f1c"/><circle cx="43.1" cy="25.05" r="0.95" fill="#fff" opacity="0.92"/><circle cx="56" cy="26" r="2.8" fill="#241f1c"/><circle cx="55.1" cy="25.05" r="0.95" fill="#fff" opacity="0.92"/></g><ellipse cx="45.24" cy="22.12" rx="5.6" ry="3.64" fill="#fff" opacity="0.16"/>
</svg>
