<?xml version="1.0" encoding="UTF-8"?>
<!-- Song Sparrow — perch silhouette; cone bill; medium tail; field marks: crownStripe, streaks, breastSpot -->
<svg xmlns="http://www.w3.org/2000/svg" width="512" height="512" viewBox="0 0 100 100" role="img" aria-label="Song Sparrow">
  <defs><clipPath id="hsongsparrow"><circle cx="50" cy="35" r="15"/></clipPath><clipPath id="bsongsparrow"><ellipse cx="49" cy="60" rx="22" ry="24"/><ellipse cx="54" cy="58" rx="14" ry="16"/></clipPath><clipPath id="wsongsparrow"><ellipse cx="44" cy="60" rx="13" ry="19"/></clipPath></defs><path d="M31 64 C19 70 13 78 11 86 L20 83 C25 76 30 71 34 68 Z" fill="#6e5238"/><g><line x1="45" y1="82" x2="45" y2="88" stroke="#5a4733" stroke-width="2" stroke-linecap="round"/><line x1="55" y1="82" x2="55" y2="88" stroke="#5a4733" stroke-width="2" stroke-linecap="round"/><line x1="45" y1="88" x2="42.6" y2="89.6" stroke="#5a4733" stroke-width="1.4" stroke-linecap="round"/><line x1="45" y1="88" x2="45" y2="89.8" stroke="#5a4733" stroke-width="1.4" stroke-linecap="round"/><line x1="45" y1="88" x2="47.4" y2="89.6" stroke="#5a4733" stroke-width="1.4" stroke-linecap="round"/><line x1="55" y1="88" x2="52.6" y2="89.6" stroke="#5a4733" stroke-width="1.4" stroke-linecap="round"/><line x1="55" y1="88" x2="55" y2="89.8" stroke="#5a4733" stroke-width="1.4" stroke-linecap="round"/><line x1="55" y1="88" x2="57.4" y2="89.6" stroke="#5a4733" stroke-width="1.4" stroke-linecap="round"/></g><ellipse cx="49" cy="60" rx="22" ry="24" fill="#9c7a58"/><ellipse cx="54" cy="64" rx="15" ry="18" fill="#efe6d6"/><ellipse cx="44" cy="60" rx="13" ry="19" fill="#6e5238"/><circle cx="50" cy="35" r="15" fill="#9c7a58"/><rect x="34" y="19" width="32" height="2.6" fill="#8a5a38" clip-path="url(#hsongsparrow)"/><rect x="34" y="25" width="32" height="2.4" fill="#8a5a38" clip-path="url(#hsongsparrow)"/><rect x="46" y="53" width="1.4" height="16" fill="#7a5a3a" clip-path="url(#bsongsparrow)"/><rect x="50.6" y="53" width="1.4" height="16" fill="#7a5a3a" clip-path="url(#bsongsparrow)"/><rect x="55.2" y="53" width="1.4" height="16" fill="#7a5a3a" clip-path="url(#bsongsparrow)"/><rect x="59.8" y="53" width="1.4" height="16" fill="#7a5a3a" clip-path="url(#bsongsparrow)"/><circle cx="54" cy="62" r="3.4" fill="#3a2a1c" clip-path="url(#bsongsparrow)"/><path d="M64 34.6 L71 37 L64 39.4 Z" fill="#5a4733"/><g><circle cx="56" cy="33" r="3" fill="#fff"/><circle cx="56.3" cy="33" r="1.86" fill="#241f1c"/><circle cx="56.7" cy="32.5" r="0.66" fill="#fff"/></g>
</svg>
